<?xml version="1.0" encoding="UTF-8" standalone="no"?>
<!-- Created with Inkscape (http://www.inkscape.org/) -->

<svg
   xmlns:dc="http://purl.org/dc/elements/1.1/"
   xmlns:cc="http://creativecommons.org/ns#"
   xmlns:rdf="http://www.w3.org/1999/02/22-rdf-syntax-ns#"
   xmlns:svg="http://www.w3.org/2000/svg"
   xmlns="http://www.w3.org/2000/svg"
   xmlns:sodipodi="http://sodipodi.sourceforge.net/DTD/sodipodi-0.dtd"
   xmlns:inkscape="http://www.inkscape.org/namespaces/inkscape"
   width="1024"
   height="1023.9999"
   id="svg4633"
   version="1.1"
   inkscape:version="0.91pre0 r13343"
   viewBox="0 0 1024 1024"
   sodipodi:docname="github.svg">
  <defs
     id="defs4635" />
  <sodipodi:namedview
     id="base"
     pagecolor="#ffffff"
     bordercolor="#666666"
     borderopacity="1.0"
     inkscape:pageopacity="0.0"
     inkscape:pageshadow="2"
     inkscape:zoom="0.35"
     inkscape:cx="-381.57143"
     inkscape:cy="463.42851"
     inkscape:document-units="px"
     inkscape:current-layer="layer1"
     showgrid="false"
     fit-margin-top="0"
     fit-margin-left="0"
     fit-margin-right="0"
     fit-margin-bottom="0"
     inkscape:window-width="1680"
     inkscape:window-height="1004"
     inkscape:window-x="1366"
     inkscape:window-y="0"
     inkscape:window-maximized="1" />
  <metadata
     id="metadata4638">
    <rdf:RDF>
      <cc:Work
         rdf:about="">
        <dc:format>image/svg+xml</dc:format>
        <dc:type
           rdf:resource="http://purl.org/dc/dcmitype/StillImage" />
        <dc:title />
      </cc:Work>
    </rdf:RDF>
  </metadata>
  <g
     inkscape:label="Layer 1"
     inkscape:groupmode="layer"
     id="layer1"
     transform="translate(332,22.494952)">
    <path
       style="display:inline"
       id="icon-github"
       d="m 180,-22.494952 c -282.77,0 -512.00001,229.230002 -512.00001,512.000012 0,282.77 229.23001,511.99994 512.00001,511.99994 282.77001,0 512,-229.22994 512,-511.99994 C 692,206.73505 462.77001,-22.494952 180,-22.494952 Z M 484.05601,793.56106 c -39.518,39.516 -85.51201,70.532 -136.70801,92.18601 -13.006,5.5 -26.214,10.328 -39.6,14.492 l 0,-76.73401 c 0,-40.334 -13.834,-70 -41.5,-89 17.334,-1.666 33.25,-4 47.75,-7 14.5,-3 29.834,-7.334 46,-13 16.166,-5.666 30.666,-12.416 43.5,-20.25 12.83401,-7.834 25.16601,-18 37.00001,-30.5 11.834,-12.5 21.75,-26.666 29.75,-42.5 8,-15.834 14.334,-34.834 19,-57 4.666,-22.166 7,-46.584 7,-73.25 0,-51.666 -16.834,-95.666 -50.5,-132 15.334,-40 13.666,-83.50001 -5,-130.50001 l -12.5,-1.5 c -8.666,-1 -24.25001,2.666 -46.75001,11 -22.5,8.334 -47.75,22 -75.75,41 -39.666,-11 -80.834,-16.5 -123.5,-16.5 -43,0 -84.000001,5.5 -123.000001,16.5 -17.666,-12 -34.416,-21.916 -50.2499997,-29.75 -15.834,-7.834 -28.5000003,-13.166 -38.0000003,-16 -9.5,-2.834 -18.334,-4.584 -26.5,-5.25 -8.166,-0.666 -13.416,-0.834 -15.75,-0.5 -2.334,0.334 -4,0.666 -5,1 -18.666,47.334 -20.334,90.83401 -5,130.50001 -33.665999,36.334 -50.499999,80.334 -50.499999,132 0,26.666 2.334,51.084 7,73.25 4.666,22.166 11,41.166 19,57 7.999999,15.834 17.915999,30 29.749999,42.5 11.834,12.5 24.166,22.666 37,30.5 12.834,7.834 27.334,14.584 43.5000003,20.25 16.1659997,5.666 31.4999997,10 45.9999997,13 14.5,3 30.416,5.334 47.75,7 -27.334,18.666 -41,48.334 -41,89 l 0,78.23001 c -15.098,-4.494 -29.98,-9.804 -44.6,-15.988 -51.194,-21.65401 -97.188,-52.67001 -136.705999,-92.18601 -39.516,-39.518 -70.53401,-85.512 -92.18601,-136.708 -22.398,-52.958 -33.756,-109.262 -33.756,-167.348 0,-58.086 11.358,-114.39 33.758,-167.35 21.654,-51.19401 52.67001,-97.18801 92.18601,-136.70601 39.515999,-39.518 85.511999,-70.534 136.705999,-92.186002 C 65.609999,70.86305 121.914,59.505049 180,59.505049 c 58.086,0 114.39,11.358001 167.35,33.757999 51.196,21.654002 97.19001,52.670002 136.70801,92.186002 39.516,39.516 70.532,85.512 92.186,136.70601 22.398,52.96 33.756,109.264 33.756,167.35 0,58.086 -11.358,114.39 -33.758,167.35 -21.654,51.194 -52.67,97.19 -92.186,136.706 z"
       inkscape:connector-curvature="0"
       class="icon" />
  </g>
</svg>
