<?xml version="1.0" encoding="UTF-8" standalone="no"?>
<!-- Created with Inkscape (http://www.inkscape.org/) -->

<svg
   xmlns:dc="http://purl.org/dc/elements/1.1/"
   xmlns:cc="http://creativecommons.org/ns#"
   xmlns:rdf="http://www.w3.org/1999/02/22-rdf-syntax-ns#"
   xmlns:svg="http://www.w3.org/2000/svg"
   xmlns="http://www.w3.org/2000/svg"
   xmlns:sodipodi="http://sodipodi.sourceforge.net/DTD/sodipodi-0.dtd"
   xmlns:inkscape="http://www.inkscape.org/namespaces/inkscape"
   width="1023.9999"
   height="1023.9999"
   id="svg4573"
   version="1.1"
   inkscape:version="0.91pre0 r13343"
   viewBox="0 0 1023.9999 1024"
   sodipodi:docname="google-plus.svg">
  <defs
     id="defs4575" />
  <sodipodi:namedview
     id="base"
     pagecolor="#ffffff"
     bordercolor="#666666"
     borderopacity="1.0"
     inkscape:pageopacity="0.0"
     inkscape:pageshadow="2"
     inkscape:zoom="0.35"
     inkscape:cx="-197.99815"
     inkscape:cy="530.89213"
     inkscape:document-units="px"
     inkscape:current-layer="layer1"
     showgrid="false"
     fit-margin-top="0"
     fit-margin-left="0"
     fit-margin-right="0"
     fit-margin-bottom="0"
     inkscape:window-width="1680"
     inkscape:window-height="1004"
     inkscape:window-x="1366"
     inkscape:window-y="0"
     inkscape:window-maximized="1" />
  <metadata
     id="metadata4578">
    <rdf:RDF>
      <cc:Work
         rdf:about="">
        <dc:format>image/svg+xml</dc:format>
        <dc:type
           rdf:resource="http://purl.org/dc/dcmitype/StillImage" />
        <dc:title />
      </cc:Work>
    </rdf:RDF>
  </metadata>
  <g
     inkscape:label="Layer 1"
     inkscape:groupmode="layer"
     id="layer1"
     transform="translate(-10.857147,-37.505049)">
    <path
       style="display:inline"
       id="icon-google-plus"
       d="m 11.66314,907.16906 c -0.244,-2.532 -0.452,-5.07 -0.584,-7.63 0.13,2.56 0.34,5.098 0.584,7.63 z m 235.10201,-304.516 c 92.01,2.738 153.734,-92.698 137.862,-213.198 -15.894,-120.48001 -103.396,-217.16801 -195.408,-219.92201 -92.026008,-2.73 -153.740009,89.482 -137.852009,210.00001 15.882001,120.468 103.352009,220.374 195.398009,223.12 z m 788.09195,-309.14801 0,-85.31 c 0,-93.88 -76.78194,-170.690001 -170.65794,-170.690001 l -682.65601,0 c -92.276008,0 -168.012009,74.232001 -170.56401,165.926001 58.362002,-51.386 139.324,-94.316 222.87401,-94.316 89.304,0 357.244,0 357.244,0 l -79.948,67.618 -113.268,0 c 75.13,28.804 115.156,116.124 115.156,205.72201 0,75.248 -41.81,139.954 -100.888,185.968 -57.644,44.902 -68.572,63.708 -68.572,101.878 0,32.578 61.746,88 94.032,110.788 94.382,66.538 124.916,128.312 124.916,231.45604 0,16.428 -2.042,32.8299 -6.066,48.9599 l 307.74201,0 c 93.874,0 170.65594,-76.74993 170.65594,-170.68994 l 0,-533.308 -191.99994,0 0,191.998 -64,0 0,-192 -191.99801,0 0,-64.00001 191.99801,0 0,-192 64,0 0,192 191.99994,0 z M 196.74315,803.44106 c 21.614,0 41.422,-0.59 61.936,-0.59 -27.146,-26.334 -48.626,-58.6 -48.626,-98.38 0,-23.608 7.564,-46.336 18.134,-66.52 -10.782,0.77 -21.79,0.994 -33.126,0.994 -74.35601,0 -137.506009,-24.076 -184.20401,-63.854 l 0,67.242 0.006,201.73 c 53.440002,-25.374 116.888,-40.622 185.88001,-40.622 z m -182.466009,121.322 c -1.112,-5.458 -1.966,-11.006 -2.542001,-16.634 0.574001,5.628 1.430001,11.176 2.542001,16.634 z m 452.030009,65.58801 c -15.058,-58.80601 -68.454,-87.96401 -142.888,-139.56801 -27.072,-8.732 -56.894,-13.874 -88.894,-14.208 -89.61801,-0.964 -173.108009,34.942 -220.216009,88.372 15.92,77.70604 85.034001,136.55794 167.234009,136.55794 l 286.444,0 c 1.816,-11.128 2.696,-22.632 2.696,-34.4319 0,-12.534 -1.534,-24.792 -4.376,-36.72203 z"
       inkscape:connector-curvature="0"
       class="icon" />
  </g>
</svg>
