<?xml version="1.0" encoding="UTF-8" standalone="no"?>
<!-- Created with Inkscape (http://www.inkscape.org/) -->

<svg
   xmlns:dc="http://purl.org/dc/elements/1.1/"
   xmlns:cc="http://creativecommons.org/ns#"
   xmlns:rdf="http://www.w3.org/1999/02/22-rdf-syntax-ns#"
   xmlns:svg="http://www.w3.org/2000/svg"
   xmlns="http://www.w3.org/2000/svg"
   xmlns:sodipodi="http://sodipodi.sourceforge.net/DTD/sodipodi-0.dtd"
   xmlns:inkscape="http://www.inkscape.org/namespaces/inkscape"
   width="1024"
   height="960"
   id="svg4430"
   version="1.1"
   inkscape:version="0.91pre0 r13343"
   viewBox="0 0 1024 960.00002"
   sodipodi:docname="reddit.svg">
  <defs
     id="defs4432" />
  <sodipodi:namedview
     id="base"
     pagecolor="#ffffff"
     bordercolor="#666666"
     borderopacity="1.0"
     inkscape:pageopacity="0.0"
     inkscape:pageshadow="2"
     inkscape:zoom="0.35"
     inkscape:cx="185.57143"
     inkscape:cy="434.28571"
     inkscape:document-units="px"
     inkscape:current-layer="layer1"
     showgrid="false"
     fit-margin-top="0"
     fit-margin-left="0"
     fit-margin-right="0"
     fit-margin-bottom="0"
     inkscape:window-width="1680"
     inkscape:window-height="1004"
     inkscape:window-x="1366"
     inkscape:window-y="0"
     inkscape:window-maximized="1" />
  <metadata
     id="metadata4435">
    <rdf:RDF>
      <cc:Work
         rdf:about="">
        <dc:format>image/svg+xml</dc:format>
        <dc:type
           rdf:resource="http://purl.org/dc/dcmitype/StillImage" />
        <dc:title />
      </cc:Work>
    </rdf:RDF>
  </metadata>
  <g
     inkscape:label="Layer 1"
     inkscape:groupmode="layer"
     id="layer1"
     transform="translate(232,-6.6478949)">
    <path
       style="display:inline"
       id="icon-reddit"
       d="m 708.00001,510.6479 q 20,51 20,104 0,96 -60,177 -60,81 -163.00001,128.00001 -103,47 -225,47 -122,0 -224.999999,-47 -103,-47.00001 -163.000011,-128.00001 -60,-81 -60,-177 0,-53 20,-104 -37,-14 -60.5,-46.5 -23.5,-32.5 -23.5,-73.5 0,-53 37.5,-90.50001 37.5,-37.5 90.5,-37.5 37.000011,0 67.500011,19.5 30.4999999,19.5 46.5,51.50001 Q 112,273.64789 239,264.64789 q 2,-11 6.5,-28.5 4.5,-17.5 14,-54.5 9.5,-37 16,-61.5 L 282,95.647896 q 12,-25 30,-25 l 166,0 q 10,-28 34.5,-46.000001 24.50001,-18.0000001 55.50001,-18.0000001 40,0 68,28.0000001 28,28.000001 28,68.000005 0,39.99999 -28,67.99999 -28,28 -68,28 -31,0 -55.50001,-18 -24.5,-18 -34.5,-46 l -141,0 -33,129 q 137,6 246.00001,70.00001 16,-32.00001 46.5,-51.50001 30.5,-19.5 67.5,-19.5 53,0 90.50004,37.5 Q 792,337.6479 792,390.6479 q 0,41 -23.5,73.5 -23.49995,32.5 -60.49999,46.5 z m -812.50002,-184 q -26.5,0 -45,18.5 -18.5,18.5 -18.5,45.5 0,27 18.5,45.5 18.5,18.5 45,18.5 26.500011,0 45.500011,-18.5 19,-18.5 19,-45.5 0,-27 -19,-45.5 -19,-18.5 -45.500011,-18.5 z m 192.000011,128 q -26.5,0 -45,19 -18.5,19 -18.5,45.5 0,26.5 18.5,45 18.5,18.5 45,18.5 26.499999,0 45.499999,-18.5 19,-18.5 19,-45 0,-26.5 -19,-45.5 -19,-19 -45.499999,-19 z M 280,774.6479 q -54,0 -81.5,-6.5 -27.5,-6.5 -46.5,-25.5 0,-13 -9.5,-22.5 -9.5,-9.5 -22.5,-9.5 -13,0 -22.499999,9.5 -9.5,9.5 -9.5,22.5 0,7 3,13 9.999999,33 62.999999,58 53,25 126,25 74,0 127,-24.5 53,-24.5 62,-58.5 3,-7 3,-13 0,-13 -9.5,-22.5 -9.5,-9.5 -22.5,-9.5 -13,0 -22.5,9.5 -9.5,9.5 -9.5,22.5 -32,32 -128,32 z m 191.5,-320 q -26.5,0 -45,19 -18.5,19 -18.5,45.5 0,26.5 18.5,45 18.5,18.5 45,18.5 26.5,0 45.50001,-18.5 19,-18.5 19,-45 0,-26.5 -19,-45.5 -19.00001,-19 -45.50001,-19 z m 192.00001,-128 q -26.5,0 -45,18.5 -18.5,18.5 -18.5,45.5 0,27 18.5,45.5 18.5,18.5 45.5,18.5 27,0 45.5,-18.5 18.5,-18.5 18.5,-45.5 0,-27 -19,-45.5 -19,-18.5 -45.5,-18.5 z"
       inkscape:connector-curvature="0"
       class="icon" />
  </g>
</svg>
