<?xml version="1.0" encoding="UTF-8" standalone="no"?>
<!-- Created with Inkscape (http://www.inkscape.org/) -->

<svg
   xmlns:dc="http://purl.org/dc/elements/1.1/"
   xmlns:cc="http://creativecommons.org/ns#"
   xmlns:rdf="http://www.w3.org/1999/02/22-rdf-syntax-ns#"
   xmlns:svg="http://www.w3.org/2000/svg"
   xmlns="http://www.w3.org/2000/svg"
   xmlns:sodipodi="http://sodipodi.sourceforge.net/DTD/sodipodi-0.dtd"
   xmlns:inkscape="http://www.inkscape.org/namespaces/inkscape"
   width="1024.0002"
   height="1023.9992"
   id="svg4717"
   version="1.1"
   inkscape:version="0.91pre0 r13343"
   viewBox="0 0 1024.0002 1023.9992"
   sodipodi:docname="slideshare.svg">
  <defs
     id="defs4719" />
  <sodipodi:namedview
     id="base"
     pagecolor="#ffffff"
     bordercolor="#666666"
     borderopacity="1.0"
     inkscape:pageopacity="0.0"
     inkscape:pageshadow="2"
     inkscape:zoom="0.35"
     inkscape:cx="617.3724"
     inkscape:cy="245.22081"
     inkscape:document-units="px"
     inkscape:current-layer="layer1"
     showgrid="false"
     inkscape:window-width="1680"
     inkscape:window-height="1004"
     inkscape:window-x="1366"
     inkscape:window-y="0"
     inkscape:window-maximized="1"
     fit-margin-top="0"
     fit-margin-left="0"
     fit-margin-right="0"
     fit-margin-bottom="0" />
  <metadata
     id="metadata4722">
    <rdf:RDF>
      <cc:Work
         rdf:about="">
        <dc:format>image/svg+xml</dc:format>
        <dc:type
           rdf:resource="http://purl.org/dc/dcmitype/StillImage" />
        <dc:title />
      </cc:Work>
    </rdf:RDF>
  </metadata>
  <g
     inkscape:label="Layer 1"
     inkscape:groupmode="layer"
     id="layer1"
     transform="translate(134.85726,245.35172)">
    <path
       style="display:inline"
       id="icon-slideshare"
       d="m 222.35327,775.34228 c -26.139,-6.086 -64.978,-27.01398 -84.209,-45.37498 -69.458998,-66.318 -85.579998,-156.54201 -52.987998,-296.55301 2.509,-10.772 -0.16,-13.091 -32.245,-27.905 -51.7960099,-23.923 -97.36401,-52.52 -138.432011,-86.876 -40.399001,-33.796 -55.495001,-56.996 -47.094001,-72.376 18.679,-15.611 30.288,-5.559 45.706001,-0.064 5.891001,0 6.885001,-29.683 6.885001,-205.409013 0,-219.464997 0.064,-220.312997 24.307,-250.480997 5.962,-7.424 22.345,-18.484 36.407,-24.577 l 25.5680001,-11.078 746.1430179,0 24.218,11.917 c 26.096,12.842 32.087,18.643 46.399,44.93 8.774,16.115 9.314,28.596 9.795,226.333997 l 0.509,209.279013 10.405,-3.236 c 35.62296,-11.078 50.17896,-4.532 44.05796,19.815 -7.77,30.902 -108.51496,107.918 -185.44596,141.767 -25.485,11.213 -36.244,18.298 -34.518,22.73 7.097,18.223 16.682,90.972 16.682,126.61 0,128.81801 -76.62201,221.46199 -183.96401,222.43099 -53.362,-4.292 -76.459,-24.14898 -105.123,-59.06598 l -2.925,-116.74101 c -1.606,-64.208 -3.758,-117.473 -4.779,-118.367 -7.624,-3.727 -14.087,-5.304 -22.496,-7.833 l -1.914,116.046 c -1.616,97.93201 -3.184,118.32901 -10.036,130.67101 -24.08,43.35998 -78.569,65.58498 -130.913,53.39698 z m 170.674,-397.79899 c 0,-15.695 5.541,-35.371 36.784,-35.371 75.196,-7.503 155.284,3.728 228.93101,-13.412 34.521,-8.56 82.97,-26.03 110.895,-39.987 l 19.988,-9.99 0,-193.544003 c 0,-108.36601 -2.093,-204.641007 -4.755,-218.760007 -6.926,-36.736 -26.806,-53.75 -67.565,-57.827 -16.727,-1.674 -180.93001,-2.39 -364.89401,-1.6 -302.111998,1.302 -335.892998,2.202 -349.0800079,9.283 -28.4460001,15.279 -28.2760001,13.841 -29.7810001,250.968007 l -1.376,216.677003 c 33.4220001,15.891 69.54001,29.969 103.09501,39.879 94.685998,25.307 140.632998,4.767 244.611998,18.62 8.463,1.309 26.544,11.617 40.616,23.16 28.526,23.4 32.529,24.865 32.529,11.904 z m -31.149,-198.113 c 0,0 0,0 0,0 0,63.051 -55.431,114.163 -123.81,114.163 0,0 0,0 0,0 0,0 0,0 0,0 -68.378,0 -123.81,-51.113 -123.81,-114.163 0,0 0,0 0,0 0,0 0,0 0,0 0,-63.051 55.431,-114.163003 123.81,-114.163003 0,0 0,0 0,0 0,0 0,0 0,0 68.378,0 123.81,51.113003 123.81,114.163003 0,63.05 0,0 0,0 z m 291.31601,0 c 0,0 0,0 0,0 0,63.051 -55.43101,114.163 -123.81001,114.163 0,0 0,0 0,0 0,0 0,0 0,0 -68.378,0 -123.81,-51.113 -123.81,-114.163 0,0 0,0 0,0 0,0 0,0 0,0 0,-63.051 55.431,-114.163003 123.81,-114.163003 0,0 0,0 0,0 0,0 0,0 0,0 68.378,0 123.81001,51.113003 123.81001,114.163003 0,0 0,0 0,0 z"
       inkscape:connector-curvature="0"
       class="icon" />
  </g>
</svg>
