<?xml version="1.0" encoding="UTF-8" standalone="no"?>
<!-- Created with Inkscape (http://www.inkscape.org/) -->

<svg
   xmlns:dc="http://purl.org/dc/elements/1.1/"
   xmlns:cc="http://creativecommons.org/ns#"
   xmlns:rdf="http://www.w3.org/1999/02/22-rdf-syntax-ns#"
   xmlns:svg="http://www.w3.org/2000/svg"
   xmlns="http://www.w3.org/2000/svg"
   xmlns:sodipodi="http://sodipodi.sourceforge.net/DTD/sodipodi-0.dtd"
   xmlns:inkscape="http://www.inkscape.org/namespaces/inkscape"
   width="877.71301"
   height="877.71301"
   id="svg4379"
   version="1.1"
   inkscape:version="0.91pre0 r13343"
   viewBox="0 0 877.71301 877.71303"
   sodipodi:docname="trello.svg">
  <defs
     id="defs4381" />
  <sodipodi:namedview
     id="base"
     pagecolor="#ffffff"
     bordercolor="#666666"
     borderopacity="1.0"
     inkscape:pageopacity="0.0"
     inkscape:pageshadow="2"
     inkscape:zoom="0.35"
     inkscape:cx="-420.4292"
     inkscape:cy="218.85649"
     inkscape:document-units="px"
     inkscape:current-layer="layer1"
     showgrid="false"
     fit-margin-top="0"
     fit-margin-left="0"
     fit-margin-right="0"
     fit-margin-bottom="0"
     inkscape:window-width="1680"
     inkscape:window-height="1004"
     inkscape:window-x="1366"
     inkscape:window-y="0"
     inkscape:window-maximized="1" />
  <metadata
     id="metadata4384">
    <rdf:RDF>
      <cc:Work
         rdf:about="">
        <dc:format>image/svg+xml</dc:format>
        <dc:type
           rdf:resource="http://purl.org/dc/dcmitype/StillImage" />
        <dc:title />
      </cc:Work>
    </rdf:RDF>
  </metadata>
  <g
     inkscape:label="Layer 1"
     inkscape:groupmode="layer"
     id="layer1"
     transform="translate(547.42794,126.49432)">
    <path
       style="display:inline"
       id="icon-trello"
       d="m -145.14294,568.36269 0,-585.143007 q 0,-8 -5.143,-13.142998 -5.143,-5.143 -13.143,-5.143 l -274.28601,0 q -8,0 -13.143,5.143 -5.143,5.142998 -5.143,13.142998 l 0,585.143007 q 0,8 5.143,13.143 5.143,5.143 13.143,5.143 l 274.28601,0 q 8,0 13.143,-5.143 5.143,-5.143 5.143,-13.143 z m 384.00001,-219.429 0,-365.714007 q 0,-8 -5.143,-13.142998 -5.143,-5.143 -13.143,-5.143 l -274.286009,0 q -8,0 -13.143,5.143 -5.143,5.142998 -5.143,13.142998 l 0,365.714007 q 0,8 5.143,13.143 5.143,5.143 13.143,5.143 l 274.286009,0 q 8,0 13.143,-5.143 5.143,-5.143 5.143,-13.143 z m 91.428,-438.857006 0,804.571006 q 0,14.857 -10.857,25.714 -10.857,10.857 -25.714,10.857 l -804.57102,0 q -14.857,0 -25.714,-10.857 -10.857,-10.857 -10.857,-25.714 l 0,-804.571006 q 0,-14.857004 10.857,-25.714004 10.857,-10.857 25.714,-10.857 l 804.57102,0 q 14.857,0 25.714,10.857 10.857,10.857 10.857,25.714004 z"
       inkscape:connector-curvature="0"
       class="icon" />
  </g>
</svg>
