<?xml version="1.0" encoding="UTF-8" standalone="no"?>
<!-- Created with Inkscape (http://www.inkscape.org/) -->

<svg
   xmlns:dc="http://purl.org/dc/elements/1.1/"
   xmlns:cc="http://creativecommons.org/ns#"
   xmlns:rdf="http://www.w3.org/1999/02/22-rdf-syntax-ns#"
   xmlns:svg="http://www.w3.org/2000/svg"
   xmlns="http://www.w3.org/2000/svg"
   xmlns:sodipodi="http://sodipodi.sourceforge.net/DTD/sodipodi-0.dtd"
   xmlns:inkscape="http://www.inkscape.org/namespaces/inkscape"
   width="1024.004"
   height="832.18201"
   id="svg4472"
   version="1.1"
   inkscape:version="0.91pre0 r13343"
   viewBox="0 0 1024.004 832.18202"
   sodipodi:docname="twitter.svg">
  <defs
     id="defs4474" />
  <sodipodi:namedview
     id="base"
     pagecolor="#ffffff"
     bordercolor="#666666"
     borderopacity="1.0"
     inkscape:pageopacity="0.0"
     inkscape:pageshadow="2"
     inkscape:zoom="0.35"
     inkscape:cx="-587.28372"
     inkscape:cy="458.94814"
     inkscape:document-units="px"
     inkscape:current-layer="layer1"
     showgrid="false"
     fit-margin-top="0"
     fit-margin-left="0"
     fit-margin-right="0"
     fit-margin-bottom="0"
     inkscape:window-width="1680"
     inkscape:window-height="1004"
     inkscape:window-x="1366"
     inkscape:window-y="0"
     inkscape:window-maximized="1" />
  <metadata
     id="metadata4477">
    <rdf:RDF>
      <cc:Work
         rdf:about="">
        <dc:format>image/svg+xml</dc:format>
        <dc:type
           rdf:resource="http://purl.org/dc/dcmitype/StillImage" />
        <dc:title />
      </cc:Work>
    </rdf:RDF>
  </metadata>
  <g
     inkscape:label="Layer 1"
     inkscape:groupmode="layer"
     id="layer1"
     transform="translate(-105.14087,-159.12833)">
    <path
       style="display:inline"
       id="icon-twitter"
       d="m 1129.1449,257.63833 c -37.676,16.708 -78.164,28.002 -120.66,33.08 43.372,-26 76.686,-67.17 92.372,-116.23 -40.596,24.078 -85.556,41.56 -133.41003,50.98 -38.32,-40.83 -92.922,-66.34 -153.34601,-66.34 -116.022,0 -210.088,94.058 -210.088,210.078 0,16.466 1.858,32.5 5.44,47.878 -174.6,-8.764 -329.402,-92.4 -433.018,-219.506 -18.084,31.028 -28.446,67.116 -28.446,105.618 0,72.888 37.088,137.192 93.45999,174.86601 -34.438,-1.092 -66.83199,-10.542 -95.15399,-26.27801 -0.02,0.876 -0.02,1.756 -0.02,2.642 0,101.78801 72.41799,186.69601 168.522,206.00001 -17.626,4.8 -36.188,7.372 -55.348,7.372 -13.53801,0 -26.69801,-1.32 -39.52801,-3.772 26.736,83.46 104.32001,144.206 196.25201,145.896 -71.9,56.35 -162.486,89.934 -260.916,89.934 -16.958,0 -33.68,-0.994 -50.116,-2.94 92.972,59.61 203.402,94.394 322.042,94.394 386.422,0 597.73604,-320.124 597.73604,-597.74401 0,-9.108 -0.206,-18.168 -0.61,-27.18 41.056,-29.62 76.672,-66.62 104.836,-108.748 z"
       inkscape:connector-curvature="0"
       class="icon" />
  </g>
</svg>
