<svg xmlns="http://www.w3.org/2000/svg"><symbol viewBox="0 0 1024 1024" id="icon-github"><title>github</title>  <sodipodi:namedview id="99ba1a29eebbed1a3e28f091270c92ffbase" pagecolor="#ffffff" bordercolor="#666666" borderopacity="1.0" inkscape:pageopacity="0.0" inkscape:pageshadow="2" inkscape:zoom="0.35" inkscape:cx="-381.57143" inkscape:cy="463.42851" inkscape:document-units="px" inkscape:current-layer="layer1" showgrid="false" fit-margin-top="0" fit-margin-left="0" fit-margin-right="0" fit-margin-bottom="0" inkscape:window-width="1680" inkscape:window-height="1004" inkscape:window-x="1366" inkscape:window-y="0" inkscape:window-maximized="1"/> <metadata id="99ba1a29eebbed1a3e28f091270c92ffmetadata4638"> <rdf:rdf> <cc:work rdf:about=""> <dc:format>image/svg+xml</dc:format> <dc:type rdf:resource="http://purl.org/dc/dcmitype/StillImage"/> <dc:title/> </cc:work> </rdf:rdf> </metadata> <g inkscape:label="Layer 1" inkscape:groupmode="layer" id="99ba1a29eebbed1a3e28f091270c92fflayer1" transform="translate(332,22.494952)"> <path style="display:inline" id="99ba1a29eebbed1a3e28f091270c92fficon-github" d="m 180,-22.494952 c -282.77,0 -512.00001,229.230002 -512.00001,512.000012 0,282.77 229.23001,511.99994 512.00001,511.99994 282.77001,0 512,-229.22994 512,-511.99994 C 692,206.73505 462.77001,-22.494952 180,-22.494952 Z M 484.05601,793.56106 c -39.518,39.516 -85.51201,70.532 -136.70801,92.18601 -13.006,5.5 -26.214,10.328 -39.6,14.492 l 0,-76.73401 c 0,-40.334 -13.834,-70 -41.5,-89 17.334,-1.666 33.25,-4 47.75,-7 14.5,-3 29.834,-7.334 46,-13 16.166,-5.666 30.666,-12.416 43.5,-20.25 12.83401,-7.834 25.16601,-18 37.00001,-30.5 11.834,-12.5 21.75,-26.666 29.75,-42.5 8,-15.834 14.334,-34.834 19,-57 4.666,-22.166 7,-46.584 7,-73.25 0,-51.666 -16.834,-95.666 -50.5,-132 15.334,-40 13.666,-83.50001 -5,-130.50001 l -12.5,-1.5 c -8.666,-1 -24.25001,2.666 -46.75001,11 -22.5,8.334 -47.75,22 -75.75,41 -39.666,-11 -80.834,-16.5 -123.5,-16.5 -43,0 -84.000001,5.5 -123.000001,16.5 -17.666,-12 -34.416,-21.916 -50.2499997,-29.75 -15.834,-7.834 -28.5000003,-13.166 -38.0000003,-16 -9.5,-2.834 -18.334,-4.584 -26.5,-5.25 -8.166,-0.666 -13.416,-0.834 -15.75,-0.5 -2.334,0.334 -4,0.666 -5,1 -18.666,47.334 -20.334,90.83401 -5,130.50001 -33.665999,36.334 -50.499999,80.334 -50.499999,132 0,26.666 2.334,51.084 7,73.25 4.666,22.166 11,41.166 19,57 7.999999,15.834 17.915999,30 29.749999,42.5 11.834,12.5 24.166,22.666 37,30.5 12.834,7.834 27.334,14.584 43.5000003,20.25 16.1659997,5.666 31.4999997,10 45.9999997,13 14.5,3 30.416,5.334 47.75,7 -27.334,18.666 -41,48.334 -41,89 l 0,78.23001 c -15.098,-4.494 -29.98,-9.804 -44.6,-15.988 -51.194,-21.65401 -97.188,-52.67001 -136.705999,-92.18601 -39.516,-39.518 -70.53401,-85.512 -92.18601,-136.708 -22.398,-52.958 -33.756,-109.262 -33.756,-167.348 0,-58.086 11.358,-114.39 33.758,-167.35 21.654,-51.19401 52.67001,-97.18801 92.18601,-136.70601 39.515999,-39.518 85.511999,-70.534 136.705999,-92.186002 C 65.609999,70.86305 121.914,59.505049 180,59.505049 c 58.086,0 114.39,11.358001 167.35,33.757999 51.196,21.654002 97.19001,52.670002 136.70801,92.186002 39.516,39.516 70.532,85.512 92.186,136.70601 22.398,52.96 33.756,109.264 33.756,167.35 0,58.086 -11.358,114.39 -33.758,167.35 -21.654,51.194 -52.67,97.19 -92.186,136.706 z" inkscape:connector-curvature="0" class="icon"/> </g> </symbol><symbol viewBox="0 0 1023.9999 1024" id="icon-google-plus"><title>google-plus</title>  <sodipodi:namedview id="f78af23e849f0eb9b8eb389c47afb8b2base" pagecolor="#ffffff" bordercolor="#666666" borderopacity="1.0" inkscape:pageopacity="0.0" inkscape:pageshadow="2" inkscape:zoom="0.35" inkscape:cx="-197.99815" inkscape:cy="530.89213" inkscape:document-units="px" inkscape:current-layer="layer1" showgrid="false" fit-margin-top="0" fit-margin-left="0" fit-margin-right="0" fit-margin-bottom="0" inkscape:window-width="1680" inkscape:window-height="1004" inkscape:window-x="1366" inkscape:window-y="0" inkscape:window-maximized="1"/> <metadata id="f78af23e849f0eb9b8eb389c47afb8b2metadata4578"> <rdf:rdf> <cc:work rdf:about=""> <dc:format>image/svg+xml</dc:format> <dc:type rdf:resource="http://purl.org/dc/dcmitype/StillImage"/> <dc:title/> </cc:work> </rdf:rdf> </metadata> <g inkscape:label="Layer 1" inkscape:groupmode="layer" id="f78af23e849f0eb9b8eb389c47afb8b2layer1" transform="translate(-10.857147,-37.505049)"> <path style="display:inline" id="f78af23e849f0eb9b8eb389c47afb8b2icon-google-plus" d="m 11.66314,907.16906 c -0.244,-2.532 -0.452,-5.07 -0.584,-7.63 0.13,2.56 0.34,5.098 0.584,7.63 z m 235.10201,-304.516 c 92.01,2.738 153.734,-92.698 137.862,-213.198 -15.894,-120.48001 -103.396,-217.16801 -195.408,-219.92201 -92.026008,-2.73 -153.740009,89.482 -137.852009,210.00001 15.882001,120.468 103.352009,220.374 195.398009,223.12 z m 788.09195,-309.14801 0,-85.31 c 0,-93.88 -76.78194,-170.690001 -170.65794,-170.690001 l -682.65601,0 c -92.276008,0 -168.012009,74.232001 -170.56401,165.926001 58.362002,-51.386 139.324,-94.316 222.87401,-94.316 89.304,0 357.244,0 357.244,0 l -79.948,67.618 -113.268,0 c 75.13,28.804 115.156,116.124 115.156,205.72201 0,75.248 -41.81,139.954 -100.888,185.968 -57.644,44.902 -68.572,63.708 -68.572,101.878 0,32.578 61.746,88 94.032,110.788 94.382,66.538 124.916,128.312 124.916,231.45604 0,16.428 -2.042,32.8299 -6.066,48.9599 l 307.74201,0 c 93.874,0 170.65594,-76.74993 170.65594,-170.68994 l 0,-533.308 -191.99994,0 0,191.998 -64,0 0,-192 -191.99801,0 0,-64.00001 191.99801,0 0,-192 64,0 0,192 191.99994,0 z M 196.74315,803.44106 c 21.614,0 41.422,-0.59 61.936,-0.59 -27.146,-26.334 -48.626,-58.6 -48.626,-98.38 0,-23.608 7.564,-46.336 18.134,-66.52 -10.782,0.77 -21.79,0.994 -33.126,0.994 -74.35601,0 -137.506009,-24.076 -184.20401,-63.854 l 0,67.242 0.006,201.73 c 53.440002,-25.374 116.888,-40.622 185.88001,-40.622 z m -182.466009,121.322 c -1.112,-5.458 -1.966,-11.006 -2.542001,-16.634 0.574001,5.628 1.430001,11.176 2.542001,16.634 z m 452.030009,65.58801 c -15.058,-58.80601 -68.454,-87.96401 -142.888,-139.56801 -27.072,-8.732 -56.894,-13.874 -88.894,-14.208 -89.61801,-0.964 -173.108009,34.942 -220.216009,88.372 15.92,77.70604 85.034001,136.55794 167.234009,136.55794 l 286.444,0 c 1.816,-11.128 2.696,-22.632 2.696,-34.4319 0,-12.534 -1.534,-24.792 -4.376,-36.72203 z" inkscape:connector-curvature="0" class="icon"/> </g> </symbol><symbol viewBox="0 0 512 512" id="icon-plus"><title>plus</title> <metadata id="2df3eb2ccceba1e6820e676850b509e2metadata136"> <rdf:rdf> <cc:work rdf:about=""> <dc:format>image/svg+xml</dc:format> <dc:type rdf:resource="http://purl.org/dc/dcmitype/StillImage"/> </cc:work> </rdf:rdf> </metadata>  <sodipodi:namedview pagecolor="#ffffff" bordercolor="#666666" borderopacity="1" objecttolerance="10" gridtolerance="10" guidetolerance="10" inkscape:pageopacity="0" inkscape:pageshadow="2" inkscape:window-width="1680" inkscape:window-height="1004" id="2df3eb2ccceba1e6820e676850b509e2namedview132" showgrid="false" inkscape:zoom="0.65186406" inkscape:cx="490.78606" inkscape:cy="151.3877" inkscape:window-x="1366" inkscape:window-y="0" inkscape:window-maximized="1" inkscape:current-layer="svg2"/> <path d="m 496,192 -176,0 0,-176 C 320,7.164 312.836,0 304,0 l -96,0 c -8.836,0 -16,7.164 -16,16 l 0,176 -176,0 c -8.836,0 -16,7.164 -16,16 l 0,96 c 0,8.836 7.164,16 16,16 l 176,0 0,176 c 0,8.836 7.164,16 16,16 l 96,0 c 8.836,0 16,-7.164 16,-16 l 0,-176 176,0 c 8.836,0 16,-7.164 16,-16 l 0,-96 c 0,-8.836 -7.164,-16 -16,-16 z" id="2df3eb2ccceba1e6820e676850b509e2icon-plus" inkscape:connector-curvature="0" class="icon"/> </symbol><symbol viewBox="0 0 1024 960.00002" id="icon-reddit"><title>reddit</title>  <sodipodi:namedview id="5d2e80d8da56e234453ec962e7b1814cbase" pagecolor="#ffffff" bordercolor="#666666" borderopacity="1.0" inkscape:pageopacity="0.0" inkscape:pageshadow="2" inkscape:zoom="0.35" inkscape:cx="185.57143" inkscape:cy="434.28571" inkscape:document-units="px" inkscape:current-layer="layer1" showgrid="false" fit-margin-top="0" fit-margin-left="0" fit-margin-right="0" fit-margin-bottom="0" inkscape:window-width="1680" inkscape:window-height="1004" inkscape:window-x="1366" inkscape:window-y="0" inkscape:window-maximized="1"/> <metadata id="5d2e80d8da56e234453ec962e7b1814cmetadata4435"> <rdf:rdf> <cc:work rdf:about=""> <dc:format>image/svg+xml</dc:format> <dc:type rdf:resource="http://purl.org/dc/dcmitype/StillImage"/> <dc:title/> </cc:work> </rdf:rdf> </metadata> <g inkscape:label="Layer 1" inkscape:groupmode="layer" id="5d2e80d8da56e234453ec962e7b1814clayer1" transform="translate(232,-6.6478949)"> <path style="display:inline" id="5d2e80d8da56e234453ec962e7b1814cicon-reddit" d="m 708.00001,510.6479 q 20,51 20,104 0,96 -60,177 -60,81 -163.00001,128.00001 -103,47 -225,47 -122,0 -224.999999,-47 -103,-47.00001 -163.000011,-128.00001 -60,-81 -60,-177 0,-53 20,-104 -37,-14 -60.5,-46.5 -23.5,-32.5 -23.5,-73.5 0,-53 37.5,-90.50001 37.5,-37.5 90.5,-37.5 37.000011,0 67.500011,19.5 30.4999999,19.5 46.5,51.50001 Q 112,273.64789 239,264.64789 q 2,-11 6.5,-28.5 4.5,-17.5 14,-54.5 9.5,-37 16,-61.5 L 282,95.647896 q 12,-25 30,-25 l 166,0 q 10,-28 34.5,-46.000001 24.50001,-18.0000001 55.50001,-18.0000001 40,0 68,28.0000001 28,28.000001 28,68.000005 0,39.99999 -28,67.99999 -28,28 -68,28 -31,0 -55.50001,-18 -24.5,-18 -34.5,-46 l -141,0 -33,129 q 137,6 246.00001,70.00001 16,-32.00001 46.5,-51.50001 30.5,-19.5 67.5,-19.5 53,0 90.50004,37.5 Q 792,337.6479 792,390.6479 q 0,41 -23.5,73.5 -23.49995,32.5 -60.49999,46.5 z m -812.50002,-184 q -26.5,0 -45,18.5 -18.5,18.5 -18.5,45.5 0,27 18.5,45.5 18.5,18.5 45,18.5 26.500011,0 45.500011,-18.5 19,-18.5 19,-45.5 0,-27 -19,-45.5 -19,-18.5 -45.500011,-18.5 z m 192.000011,128 q -26.5,0 -45,19 -18.5,19 -18.5,45.5 0,26.5 18.5,45 18.5,18.5 45,18.5 26.499999,0 45.499999,-18.5 19,-18.5 19,-45 0,-26.5 -19,-45.5 -19,-19 -45.499999,-19 z M 280,774.6479 q -54,0 -81.5,-6.5 -27.5,-6.5 -46.5,-25.5 0,-13 -9.5,-22.5 -9.5,-9.5 -22.5,-9.5 -13,0 -22.499999,9.5 -9.5,9.5 -9.5,22.5 0,7 3,13 9.999999,33 62.999999,58 53,25 126,25 74,0 127,-24.5 53,-24.5 62,-58.5 3,-7 3,-13 0,-13 -9.5,-22.5 -9.5,-9.5 -22.5,-9.5 -13,0 -22.5,9.5 -9.5,9.5 -9.5,22.5 -32,32 -128,32 z m 191.5,-320 q -26.5,0 -45,19 -18.5,19 -18.5,45.5 0,26.5 18.5,45 18.5,18.5 45,18.5 26.5,0 45.50001,-18.5 19,-18.5 19,-45 0,-26.5 -19,-45.5 -19.00001,-19 -45.50001,-19 z m 192.00001,-128 q -26.5,0 -45,18.5 -18.5,18.5 -18.5,45.5 0,27 18.5,45.5 18.5,18.5 45.5,18.5 27,0 45.5,-18.5 18.5,-18.5 18.5,-45.5 0,-27 -19,-45.5 -19,-18.5 -45.5,-18.5 z" inkscape:connector-curvature="0" class="icon"/> </g> </symbol><symbol viewBox="0 0 1024 1024" id="icon-rocket"><title>rocket</title>  <sodipodi:namedview id="d8daeb6238cb02ef6ae829aff3294c93base" pagecolor="#ffffff" bordercolor="#666666" borderopacity="1.0" inkscape:pageopacity="0.0" inkscape:pageshadow="2" inkscape:zoom="0.35" inkscape:cx="906.42991" inkscape:cy="167.42588" inkscape:document-units="px" inkscape:current-layer="layer1" showgrid="false" fit-margin-top="0" fit-margin-left="0" fit-margin-right="0" fit-margin-bottom="0" inkscape:window-width="1680" inkscape:window-height="1004" inkscape:window-x="1366" inkscape:window-y="0" inkscape:window-maximized="1"/> <metadata id="d8daeb6238cb02ef6ae829aff3294c93metadata4783"> <rdf:rdf> <cc:work rdf:about=""> <dc:format>image/svg+xml</dc:format> <dc:type rdf:resource="http://purl.org/dc/dcmitype/StillImage"/> <dc:title/> </cc:work> </rdf:rdf> </metadata> <g inkscape:label="Layer 1" inkscape:groupmode="layer" id="d8daeb6238cb02ef6ae829aff3294c93layer1" transform="translate(60.571425,322.49496)"> <path style="display:inline" id="d8daeb6238cb02ef6ae829aff3294c93icon-rocket" d="m 643.42858,-258.49496 -320,320.000013 -192,0 -192.000012,255.999997 c 0,0 203.416012,-56.652 322.066012,-30.084 L -60.571432,701.50504 361.33058,373.36105 c 58.838,134.654 -37.902,328.14399 -37.902,328.14399 l 256,-191.99999 0,-192 320.00001,-319.9999971 63.99999,-320.0000129 -320,64 z" inkscape:connector-curvature="0" class="icon"/> </g> </symbol><symbol viewBox="0 0 1024.0002 1023.9992" id="icon-slideshare"><title>slideshare</title>  <sodipodi:namedview id="f5bebddb9c43ca9dbf81bfe2bdea0325base" pagecolor="#ffffff" bordercolor="#666666" borderopacity="1.0" inkscape:pageopacity="0.0" inkscape:pageshadow="2" inkscape:zoom="0.35" inkscape:cx="617.3724" inkscape:cy="245.22081" inkscape:document-units="px" inkscape:current-layer="layer1" showgrid="false" inkscape:window-width="1680" inkscape:window-height="1004" inkscape:window-x="1366" inkscape:window-y="0" inkscape:window-maximized="1" fit-margin-top="0" fit-margin-left="0" fit-margin-right="0" fit-margin-bottom="0"/> <metadata id="f5bebddb9c43ca9dbf81bfe2bdea0325metadata4722"> <rdf:rdf> <cc:work rdf:about=""> <dc:format>image/svg+xml</dc:format> <dc:type rdf:resource="http://purl.org/dc/dcmitype/StillImage"/> <dc:title/> </cc:work> </rdf:rdf> </metadata> <g inkscape:label="Layer 1" inkscape:groupmode="layer" id="f5bebddb9c43ca9dbf81bfe2bdea0325layer1" transform="translate(134.85726,245.35172)"> <path style="display:inline" id="f5bebddb9c43ca9dbf81bfe2bdea0325icon-slideshare" d="m 222.35327,775.34228 c -26.139,-6.086 -64.978,-27.01398 -84.209,-45.37498 -69.458998,-66.318 -85.579998,-156.54201 -52.987998,-296.55301 2.509,-10.772 -0.16,-13.091 -32.245,-27.905 -51.7960099,-23.923 -97.36401,-52.52 -138.432011,-86.876 -40.399001,-33.796 -55.495001,-56.996 -47.094001,-72.376 18.679,-15.611 30.288,-5.559 45.706001,-0.064 5.891001,0 6.885001,-29.683 6.885001,-205.409013 0,-219.464997 0.064,-220.312997 24.307,-250.480997 5.962,-7.424 22.345,-18.484 36.407,-24.577 l 25.5680001,-11.078 746.1430179,0 24.218,11.917 c 26.096,12.842 32.087,18.643 46.399,44.93 8.774,16.115 9.314,28.596 9.795,226.333997 l 0.509,209.279013 10.405,-3.236 c 35.62296,-11.078 50.17896,-4.532 44.05796,19.815 -7.77,30.902 -108.51496,107.918 -185.44596,141.767 -25.485,11.213 -36.244,18.298 -34.518,22.73 7.097,18.223 16.682,90.972 16.682,126.61 0,128.81801 -76.62201,221.46199 -183.96401,222.43099 -53.362,-4.292 -76.459,-24.14898 -105.123,-59.06598 l -2.925,-116.74101 c -1.606,-64.208 -3.758,-117.473 -4.779,-118.367 -7.624,-3.727 -14.087,-5.304 -22.496,-7.833 l -1.914,116.046 c -1.616,97.93201 -3.184,118.32901 -10.036,130.67101 -24.08,43.35998 -78.569,65.58498 -130.913,53.39698 z m 170.674,-397.79899 c 0,-15.695 5.541,-35.371 36.784,-35.371 75.196,-7.503 155.284,3.728 228.93101,-13.412 34.521,-8.56 82.97,-26.03 110.895,-39.987 l 19.988,-9.99 0,-193.544003 c 0,-108.36601 -2.093,-204.641007 -4.755,-218.760007 -6.926,-36.736 -26.806,-53.75 -67.565,-57.827 -16.727,-1.674 -180.93001,-2.39 -364.89401,-1.6 -302.111998,1.302 -335.892998,2.202 -349.0800079,9.283 -28.4460001,15.279 -28.2760001,13.841 -29.7810001,250.968007 l -1.376,216.677003 c 33.4220001,15.891 69.54001,29.969 103.09501,39.879 94.685998,25.307 140.632998,4.767 244.611998,18.62 8.463,1.309 26.544,11.617 40.616,23.16 28.526,23.4 32.529,24.865 32.529,11.904 z m -31.149,-198.113 c 0,0 0,0 0,0 0,63.051 -55.431,114.163 -123.81,114.163 0,0 0,0 0,0 0,0 0,0 0,0 -68.378,0 -123.81,-51.113 -123.81,-114.163 0,0 0,0 0,0 0,0 0,0 0,0 0,-63.051 55.431,-114.163003 123.81,-114.163003 0,0 0,0 0,0 0,0 0,0 0,0 68.378,0 123.81,51.113003 123.81,114.163003 0,63.05 0,0 0,0 z m 291.31601,0 c 0,0 0,0 0,0 0,63.051 -55.43101,114.163 -123.81001,114.163 0,0 0,0 0,0 0,0 0,0 0,0 -68.378,0 -123.81,-51.113 -123.81,-114.163 0,0 0,0 0,0 0,0 0,0 0,0 0,-63.051 55.431,-114.163003 123.81,-114.163003 0,0 0,0 0,0 0,0 0,0 0,0 68.378,0 123.81001,51.113003 123.81001,114.163003 0,0 0,0 0,0 z" inkscape:connector-curvature="0" class="icon"/> </g> </symbol><symbol viewBox="0 0 1024 1024" id="icon-stack-overflow"><title>stack-overflow</title>  <sodipodi:namedview id="77c90dd2b1c3fd1474cb6dc84051aa29base" pagecolor="#ffffff" bordercolor="#666666" borderopacity="1.0" inkscape:pageopacity="0.0" inkscape:pageshadow="2" inkscape:zoom="0.35" inkscape:cx="1140.9796" inkscape:cy="497.98698" inkscape:document-units="px" inkscape:current-layer="layer1" showgrid="false" fit-margin-top="0" fit-margin-left="0" fit-margin-right="0" fit-margin-bottom="0" inkscape:window-width="1680" inkscape:window-height="1004" inkscape:window-x="1366" inkscape:window-y="0" inkscape:window-maximized="1"/> <metadata id="77c90dd2b1c3fd1474cb6dc84051aa29metadata4527"> <rdf:rdf> <cc:work rdf:about=""> <dc:format>image/svg+xml</dc:format> <dc:type rdf:resource="http://purl.org/dc/dcmitype/StillImage"/> <dc:title/> </cc:work> </rdf:rdf> </metadata> <g inkscape:label="Layer 1" inkscape:groupmode="layer" id="77c90dd2b1c3fd1474cb6dc84051aa29layer1" transform="translate(289.14285,11.066381)"> <path style="display:inline" id="77c90dd2b1c3fd1474cb6dc84051aa29icon-stack-overflow" d="m 734.85714,628.93363 0,383.99997 -1024,0 0,-383.99997 127.99999,0 0,256 768.00002,0 0,-256 z m -831.999997,64 640.000007,0 0,128 -640.000007,0 z m 15.152,-138.534 27.698,-124.964 624.832007,138.496 -27.698,124.964 z m 72.5059999,-256.908 54.0920001,-116.00601 580.032007,270.46401 -54.092,116.006 z m 712.0640071,52.918 -77.922,101.55 -507.74601,-389.60801 56.336,-73.418001 58.244,0 z" inkscape:connector-curvature="0" class="icon"/> </g> </symbol><symbol viewBox="0 0 877.71301 877.71303" id="icon-trello"><title>trello</title>  <sodipodi:namedview id="4025f3e1043edae482a187f016631bd9base" pagecolor="#ffffff" bordercolor="#666666" borderopacity="1.0" inkscape:pageopacity="0.0" inkscape:pageshadow="2" inkscape:zoom="0.35" inkscape:cx="-420.4292" inkscape:cy="218.85649" inkscape:document-units="px" inkscape:current-layer="layer1" showgrid="false" fit-margin-top="0" fit-margin-left="0" fit-margin-right="0" fit-margin-bottom="0" inkscape:window-width="1680" inkscape:window-height="1004" inkscape:window-x="1366" inkscape:window-y="0" inkscape:window-maximized="1"/> <metadata id="4025f3e1043edae482a187f016631bd9metadata4384"> <rdf:rdf> <cc:work rdf:about=""> <dc:format>image/svg+xml</dc:format> <dc:type rdf:resource="http://purl.org/dc/dcmitype/StillImage"/> <dc:title/> </cc:work> </rdf:rdf> </metadata> <g inkscape:label="Layer 1" inkscape:groupmode="layer" id="4025f3e1043edae482a187f016631bd9layer1" transform="translate(547.42794,126.49432)"> <path style="display:inline" id="4025f3e1043edae482a187f016631bd9icon-trello" d="m -145.14294,568.36269 0,-585.143007 q 0,-8 -5.143,-13.142998 -5.143,-5.143 -13.143,-5.143 l -274.28601,0 q -8,0 -13.143,5.143 -5.143,5.142998 -5.143,13.142998 l 0,585.143007 q 0,8 5.143,13.143 5.143,5.143 13.143,5.143 l 274.28601,0 q 8,0 13.143,-5.143 5.143,-5.143 5.143,-13.143 z m 384.00001,-219.429 0,-365.714007 q 0,-8 -5.143,-13.142998 -5.143,-5.143 -13.143,-5.143 l -274.286009,0 q -8,0 -13.143,5.143 -5.143,5.142998 -5.143,13.142998 l 0,365.714007 q 0,8 5.143,13.143 5.143,5.143 13.143,5.143 l 274.286009,0 q 8,0 13.143,-5.143 5.143,-5.143 5.143,-13.143 z m 91.428,-438.857006 0,804.571006 q 0,14.857 -10.857,25.714 -10.857,10.857 -25.714,10.857 l -804.57102,0 q -14.857,0 -25.714,-10.857 -10.857,-10.857 -10.857,-25.714 l 0,-804.571006 q 0,-14.857004 10.857,-25.714004 10.857,-10.857 25.714,-10.857 l 804.57102,0 q 14.857,0 25.714,10.857 10.857,10.857 10.857,25.714004 z" inkscape:connector-curvature="0" class="icon"/> </g> </symbol><symbol viewBox="0 0 1024.004 832.18202" id="icon-twitter"><title>twitter</title>  <sodipodi:namedview id="bfa81b914121a79243bff701f0055dd3base" pagecolor="#ffffff" bordercolor="#666666" borderopacity="1.0" inkscape:pageopacity="0.0" inkscape:pageshadow="2" inkscape:zoom="0.35" inkscape:cx="-587.28372" inkscape:cy="458.94814" inkscape:document-units="px" inkscape:current-layer="layer1" showgrid="false" fit-margin-top="0" fit-margin-left="0" fit-margin-right="0" fit-margin-bottom="0" inkscape:window-width="1680" inkscape:window-height="1004" inkscape:window-x="1366" inkscape:window-y="0" inkscape:window-maximized="1"/> <metadata id="bfa81b914121a79243bff701f0055dd3metadata4477"> <rdf:rdf> <cc:work rdf:about=""> <dc:format>image/svg+xml</dc:format> <dc:type rdf:resource="http://purl.org/dc/dcmitype/StillImage"/> <dc:title/> </cc:work> </rdf:rdf> </metadata> <g inkscape:label="Layer 1" inkscape:groupmode="layer" id="bfa81b914121a79243bff701f0055dd3layer1" transform="translate(-105.14087,-159.12833)"> <path style="display:inline" id="bfa81b914121a79243bff701f0055dd3icon-twitter" d="m 1129.1449,257.63833 c -37.676,16.708 -78.164,28.002 -120.66,33.08 43.372,-26 76.686,-67.17 92.372,-116.23 -40.596,24.078 -85.556,41.56 -133.41003,50.98 -38.32,-40.83 -92.922,-66.34 -153.34601,-66.34 -116.022,0 -210.088,94.058 -210.088,210.078 0,16.466 1.858,32.5 5.44,47.878 -174.6,-8.764 -329.402,-92.4 -433.018,-219.506 -18.084,31.028 -28.446,67.116 -28.446,105.618 0,72.888 37.088,137.192 93.45999,174.86601 -34.438,-1.092 -66.83199,-10.542 -95.15399,-26.27801 -0.02,0.876 -0.02,1.756 -0.02,2.642 0,101.78801 72.41799,186.69601 168.522,206.00001 -17.626,4.8 -36.188,7.372 -55.348,7.372 -13.53801,0 -26.69801,-1.32 -39.52801,-3.772 26.736,83.46 104.32001,144.206 196.25201,145.896 -71.9,56.35 -162.486,89.934 -260.916,89.934 -16.958,0 -33.68,-0.994 -50.116,-2.94 92.972,59.61 203.402,94.394 322.042,94.394 386.422,0 597.73604,-320.124 597.73604,-597.74401 0,-9.108 -0.206,-18.168 -0.61,-27.18 41.056,-29.62 76.672,-66.62 104.836,-108.748 z" inkscape:connector-curvature="0" class="icon"/> </g> </symbol><symbol viewBox="0 0 1024 768.00001" id="icon-youtube"><title>youtube</title>  <sodipodi:namedview id="406ffe051539b2e4cf5c5c79c2f648efbase" pagecolor="#ffffff" bordercolor="#666666" borderopacity="1.0" inkscape:pageopacity="0.0" inkscape:pageshadow="2" inkscape:zoom="0.35" inkscape:cx="-388.77696" inkscape:cy="237.23635" inkscape:document-units="px" inkscape:current-layer="layer1" showgrid="false" fit-margin-top="0" fit-margin-left="0" fit-margin-right="0" fit-margin-bottom="0" inkscape:window-width="1680" inkscape:window-height="1004" inkscape:window-x="1366" inkscape:window-y="0" inkscape:window-maximized="1"/> <metadata id="406ffe051539b2e4cf5c5c79c2f648efmetadata4680"> <rdf:rdf> <cc:work rdf:about=""> <dc:format>image/svg+xml</dc:format> <dc:type rdf:resource="http://purl.org/dc/dcmitype/StillImage"/> <dc:title/> </cc:work> </rdf:rdf> </metadata> <g inkscape:label="Layer 1" inkscape:groupmode="layer" id="406ffe051539b2e4cf5c5c79c2f648eflayer1" transform="translate(343.42857,185.92353)"> <path style="display:inline" id="406ffe051539b2e4cf5c5c79c2f648eficon-youtube" d="m 488.57144,-185.92353 -640.00001,0 c -105.60001,0 -192.00001,86.399998 -192.00001,191.9999966 l 0,384.0000134 c 0,105.6 86.4,192 192.00001,192 l 640.00001,0 c 105.6,0 191.99999,-86.4 191.99999,-192 l 0,-384.0000134 c 0,-105.5999986 -86.39999,-191.9999966 -191.99999,-191.9999966 z m -448.000012,640.00001 0,-512.000013 320.000002,256.000013 -320.000002,256 z" inkscape:connector-curvature="0" class="icon"/> </g> </symbol></svg>